<?xml version="1.0" encoding="UTF-8"?>
<svg id="Layer_1" data-name="Layer 1" xmlns="http://www.w3.org/2000/svg" xmlns:xlink="http://www.w3.org/1999/xlink" viewBox="0 0 1602.33 356.07">
  <defs>
    <style>
      .cls-1 {
        fill: #fff;
        opacity: .38;
      }

      .cls-2 {
        clip-path: url(#clippath-2);
      }

      .cls-3 {
        clip-path: url(#clippath-1);
      }

      .cls-4 {
        fill: url(#linear-gradient-8);
        stroke: url(#linear-gradient-9);
      }

      .cls-4, .cls-5 {
        stroke-width: 8.21px;
      }

      .cls-4, .cls-6 {
        stroke-miterlimit: 10;
      }

      .cls-5 {
        fill: url(#linear-gradient-6);
        stroke: url(#linear-gradient-7);
      }

      .cls-5, .cls-7 {
        stroke-linecap: round;
        stroke-linejoin: round;
      }

      .cls-8 {
        clip-path: url(#clippath);
      }

      .cls-9 {
        fill: none;
      }

      .cls-6 {
        fill: url(#linear-gradient);
        stroke: url(#linear-gradient-2);
        stroke-width: 13.24px;
      }

      .cls-7 {
        fill: url(#linear-gradient-4);
        stroke: url(#linear-gradient-5);
        stroke-width: 12.76px;
      }

      .cls-10 {
        fill: url(#linear-gradient-3);
      }
    </style>
    <clipPath id="clippath">
      <path class="cls-9" d="M993.14,209.67h12.78c3.73,0,6.95,1.33,9.67,3.99,2.72,2.66,4.07,5.81,4.07,9.43v11.82c0,3.73-1.31,6.9-3.91,9.51s-5.78,3.91-9.51,3.91h-13.42c-3.73,0-6.9-1.3-9.51-3.91-2.61-2.61-3.91-5.78-3.91-9.51v-11.5c.1-3.73,1.49-6.95,4.15-9.67,2.66-2.72,5.86-4.07,9.59-4.07Zm26.84-159.61l-6.55,104.01c-.32,3.83-1.76,7.03-4.31,9.59-2.56,2.56-5.59,3.83-9.11,3.83-3.94,0-7.16-1.33-9.67-3.99-2.5-2.66-3.86-5.8-4.07-9.43l-6.55-104.33c-.22-3.62,1.04-6.76,3.75-9.43,2.72-2.66,5.94-3.99,9.67-3.99h13.42c3.73,0,6.95,1.41,9.67,4.23,2.72,2.82,3.97,5.99,3.75,9.51Z"/>
    </clipPath>
    <linearGradient id="linear-gradient" x1="967.88" y1="138.96" x2="1029.96" y2="138.96" gradientUnits="userSpaceOnUse">
      <stop offset="0" stop-color="#0000b6"/>
      <stop offset=".17" stop-color="#1900c8"/>
      <stop offset=".39" stop-color="#3200da"/>
      <stop offset=".58" stop-color="#4100e6"/>
      <stop offset=".74" stop-color="#4700ea"/>
    </linearGradient>
    <linearGradient id="linear-gradient-2" x1="961.26" y1="138.96" x2="1036.58" y2="138.96" gradientUnits="userSpaceOnUse">
      <stop offset="0" stop-color="#ec00ff"/>
      <stop offset=".99" stop-color="#5600d1"/>
    </linearGradient>
    <clipPath id="clippath-1">
      <path class="cls-9" d="M1044.58,50.93V19.51h172v31.42h-172Zm69.46,203.43V19.51h33.08V254.36h-33.08Zm223.41,3.31c-29.88,0-52.95-7.86-69.22-23.57-16.27-15.71-24.39-38.29-24.39-67.73s6.89-50.94,20.67-66.82c13.78-15.88,33.24-23.82,58.38-23.82,23.7,0,42.03,7.17,54.99,21.5,12.95,14.33,19.43,35.17,19.43,62.52,0,8.05-.33,15.55-.99,22.49h-123.05v-26.79h92.29c0-15.77-3.75-27.87-11.25-36.3-7.5-8.43-17.86-12.65-31.09-12.65-14.89,0-26.44,5.07-34.65,15.22-8.22,10.15-12.32,24.48-12.32,43,0,20.29,5.65,35.72,16.95,46.31,11.3,10.58,27.37,15.88,48.21,15.88,7.28,0,14.44-.41,21.5-1.24,7.05-.83,14.22-1.96,21.5-3.39l4.3,30.76c-10.37,1.98-19.85,3.25-28.45,3.8-8.6,.55-16.21,.83-22.82,.83Zm190,0c-29.88,0-52.95-7.86-69.22-23.57-16.27-15.71-24.39-38.29-24.39-67.73s7.69-50.94,23.07-66.82c15.38-15.88,37.35-23.82,65.91-23.82,17.09,0,31.73,3.17,43.91,9.51,12.18,6.34,20.86,15.3,26.05,26.88l-26.96,20.34c-4.96-8.05-11.3-14.28-19.02-18.69-7.72-4.41-16.15-6.62-25.3-6.62-16.54,0-29.39,4.99-38.54,14.97-9.15,9.98-13.73,24.18-13.73,42.59,0,19.96,5.38,35.2,16.13,45.73,10.75,10.53,26.1,15.79,46.06,15.79,8.16,0,16.32-.38,24.48-1.16,8.16-.77,16.1-1.82,23.82-3.14l3.97,30.76c-9.04,1.98-18.39,3.31-28.03,3.97-9.65,.66-19.05,.99-28.2,.99Z"/>
    </clipPath>
    <linearGradient id="linear-gradient-3" x1="1024.7" y1="168.13" x2="1618.87" y2="168.13" gradientUnits="userSpaceOnUse">
      <stop offset="0" stop-color="#0000b6"/>
      <stop offset=".17" stop-color="#1900c8"/>
      <stop offset=".39" stop-color="#3200da"/>
      <stop offset=".58" stop-color="#4100e6"/>
      <stop offset=".74" stop-color="#4700ea"/>
    </linearGradient>
    <clipPath id="clippath-2">
      <path class="cls-9" d="M489.43,105.07v59.54h-18.69v85.51h-67.15V24.36h67.15V105.07h18.69Zm78.56-80.71V250.11h-67.15V24.36h67.15Zm126.18,228.95c-28.86,0-51.15-7.59-66.86-22.77-15.71-15.18-23.57-36.99-23.57-65.42s6.66-49.21,19.97-64.55c13.31-15.34,32.11-23.01,56.4-23.01,22.9,0,40.61,6.92,53.12,20.77,12.51,13.85,18.77,33.98,18.77,60.39,0,7.78-.32,15.02-.96,21.73h-118.87v-25.88h89.15c0-15.23-3.62-26.92-10.86-35.07-7.24-8.15-17.25-12.22-30.04-12.22-14.38,0-25.54,4.9-33.47,14.7-7.94,9.8-11.9,23.65-11.9,41.54,0,19.6,5.46,34.51,16.38,44.74,10.92,10.22,26.44,15.34,46.57,15.34,7.03,0,13.95-.4,20.77-1.2,6.82-.8,13.74-1.89,20.77-3.27l4.15,29.72c-10.01,1.92-19.17,3.14-27.48,3.67-8.31,.53-15.66,.8-22.05,.8Zm147.59-3.2l-67.42-169.35h35.15l55.28,143.79h5.11v25.56h-28.12Zm-64.23,76.69l-1.6-30.36,26.52-3.2c11.18-1.39,20.74-4.42,28.68-9.11,7.93-4.69,14.72-11.64,20.37-20.85,5.64-9.21,10.6-21.27,14.86-36.19l42.18-146.35h35.15l-48.89,154.33c-6.39,20.24-13.56,36.53-21.49,48.89-7.94,12.35-17.31,21.62-28.12,27.8-10.81,6.18-23.78,10.12-38.9,11.82l-28.76,3.2Z"/>
    </clipPath>
    <linearGradient id="linear-gradient-4" x1="396.71" y1="156.74" x2="952.45" y2="156.74" gradientUnits="userSpaceOnUse">
      <stop offset="0" stop-color="#ffdfad"/>
      <stop offset=".38" stop-color="#ffc47d"/>
      <stop offset=".46" stop-color="#ffbf80"/>
      <stop offset=".56" stop-color="#ffb289"/>
      <stop offset=".65" stop-color="#ff9d99"/>
      <stop offset=".75" stop-color="#ff7faf"/>
      <stop offset=".84" stop-color="#ff58cc"/>
      <stop offset=".94" stop-color="#ff2aef"/>
      <stop offset=".98" stop-color="#ff15ff"/>
    </linearGradient>
    <linearGradient id="linear-gradient-5" x1="390.32" y1="156.74" x2="958.83" y2="156.74" gradientUnits="userSpaceOnUse">
      <stop offset="0" stop-color="#ffecca"/>
      <stop offset=".38" stop-color="#ffc47d"/>
      <stop offset=".46" stop-color="#ffbf80"/>
      <stop offset=".56" stop-color="#ffb289"/>
      <stop offset=".65" stop-color="#ff9d99"/>
      <stop offset=".75" stop-color="#ff7faf"/>
      <stop offset=".84" stop-color="#ff58cc"/>
      <stop offset=".94" stop-color="#ff2aef"/>
      <stop offset=".98" stop-color="#ff15ff"/>
    </linearGradient>
    <linearGradient id="linear-gradient-6" x1="193.36" y1="336.7" x2="180.04" y2="136.69" xlink:href="#linear-gradient-5"/>
    <linearGradient id="linear-gradient-7" x1="190.21" y1="117.87" x2="175.31" y2="341.59" xlink:href="#linear-gradient-5"/>
    <linearGradient id="linear-gradient-8" x1="245.46" y1="22.12" x2="102.61" y2="269.54" xlink:href="#linear-gradient-3"/>
    <linearGradient id="linear-gradient-9" x1="179.43" y1="232.17" x2="179.43" y2="4.89" xlink:href="#linear-gradient-2"/>
  </defs>
  <g id="Hey_Tec" data-name="Hey!Tec">
    <g id="_" data-name="!">
      <g class="cls-8">
        <rect class="cls-6" x="967.88" y="4.09" width="62.08" height="269.74"/>
      </g>
    </g>
    <g id="Tec">
      <g class="cls-3">
        <rect class="cls-10" x="1024.7" y="-27.18" width="594.17" height="390.62"/>
      </g>
    </g>
    <g id="Hey">
      <g class="cls-2">
        <rect class="cls-7" x="396.71" y="-30.61" width="555.74" height="374.71"/>
      </g>
    </g>
  </g>
  <g id="Icon">
    <path id="Bottom" class="cls-5" d="M24.05,224.2c21.44,65.94,83.23,113.9,156.1,113.11,92.84-1.01,170.39-76.38,164.16-164.16-.62-8.72-1.81-17.29-3.53-25.65-14.91-11.21-36.38-23.06-58-16.54-20.38,6.14-21.24,22.68-46.32,39.56-39.22,26.4-82.7,16.65-87.15,15.58-28.78-6.93-23.78-6.49-46.27-9.45-30.39-4-58.96,25.54-78.99,47.55"/>
    <path id="Top" class="cls-4" d="M101.62,176.48c.47,.05,.95,.1,1.42,.16,22.49,2.96,17.49,2.52,46.27,9.45,4.44,1.07,47.93,10.81,87.14-15.58,25.08-16.88,25.94-33.42,46.32-39.56,21.62-6.52,43.09,5.33,58,16.54C324.71,69.18,262.06,8.99,180.14,8.99,89.48,8.99,15.98,82.49,15.98,173.15c0,17.79,2.84,34.94,8.07,51.04,19.72-21.67,47.71-50.62,77.56-47.7Z"/>
    <g id="Stars">
      <path class="cls-1" d="M207.62,51.42l1.55,2.83c.03,.06,.09,.12,.15,.15l2.83,1.55c.26,.14,.26,.52,0,.67l-2.83,1.55c-.06,.03-.12,.09-.15,.15l-1.55,2.83c-.14,.26-.52,.26-.67,0l-1.55-2.83c-.03-.06-.09-.12-.15-.15l-2.83-1.55c-.26-.14-.26-.52,0-.67l2.83-1.55c.06-.03,.12-.09,.15-.15l1.55-2.83c.14-.26,.52-.26,.67,0Z"/>
      <path class="cls-1" d="M239.33,33.33l1.55,2.83c.03,.06,.09,.12,.15,.15l2.83,1.55c.26,.14,.26,.52,0,.67l-2.83,1.55c-.06,.03-.12,.09-.15,.15l-1.55,2.83c-.14,.26-.52,.26-.67,0l-1.55-2.83c-.03-.06-.09-.12-.15-.15l-2.83-1.55c-.26-.14-.26-.52,0-.67l2.83-1.55c.06-.03,.12-.09,.15-.15l1.55-2.83c.14-.26,.52-.26,.67,0Z"/>
      <path class="cls-1" d="M272.63,49.84l1.55,2.83c.03,.06,.09,.12,.15,.15l2.83,1.55c.26,.14,.26,.52,0,.67l-2.83,1.55c-.06,.03-.12,.09-.15,.15l-1.55,2.83c-.14,.26-.52,.26-.67,0l-1.55-2.83c-.03-.06-.09-.12-.15-.15l-2.83-1.55c-.26-.14-.26-.52,0-.67l2.83-1.55c.06-.03,.12-.09,.15-.15l1.55-2.83c.14-.26,.52-.26,.67,0Z"/>
      <path class="cls-1" d="M183.52,15.41l1.55,2.83c.03,.06,.09,.12,.15,.15l2.83,1.55c.26,.14,.26,.52,0,.67l-2.83,1.55c-.06,.03-.12,.09-.15,.15l-1.55,2.83c-.14,.26-.52,.26-.67,0l-1.55-2.83c-.03-.06-.09-.12-.15-.15l-2.83-1.55c-.26-.14-.26-.52,0-.67l2.83-1.55c.06-.03,.12-.09,.15-.15l1.55-2.83c.14-.26,.52-.26,.67,0Z"/>
      <path class="cls-1" d="M142.61,59.97l1.55,2.83c.03,.06,.09,.12,.15,.15l2.83,1.55c.26,.14,.26,.52,0,.67l-2.83,1.55c-.06,.03-.12,.09-.15,.15l-1.55,2.83c-.14,.26-.52,.26-.67,0l-1.55-2.83c-.03-.06-.09-.12-.15-.15l-2.83-1.55c-.26-.14-.26-.52,0-.67l2.83-1.55c.06-.03,.12-.09,.15-.15l1.55-2.83c.14-.26,.52-.26,.67,0Z"/>
      <path class="cls-1" d="M127.42,28.26l1.55,2.83c.03,.06,.09,.12,.15,.15l2.83,1.55c.26,.14,.26,.52,0,.67l-2.83,1.55c-.06,.03-.12,.09-.15,.15l-1.55,2.83c-.14,.26-.52,.26-.67,0l-1.55-2.83c-.03-.06-.09-.12-.15-.15l-2.83-1.55c-.26-.14-.26-.52,0-.67l2.83-1.55c.06-.03,.12-.09,.15-.15l1.55-2.83c.14-.26,.52-.26,.67,0Z"/>
      <path class="cls-1" d="M292.12,75.87l1.55,2.83c.03,.06,.09,.12,.15,.15l2.83,1.55c.26,.14,.26,.52,0,.67l-2.83,1.55c-.06,.03-.12,.09-.15,.15l-1.55,2.83c-.14,.26-.52,.26-.67,0l-1.55-2.83c-.03-.06-.09-.12-.15-.15l-2.83-1.55c-.26-.14-.26-.52,0-.67l2.83-1.55c.06-.03,.12-.09,.15-.15l1.55-2.83c.14-.26,.52-.26,.67,0Z"/>
      <path class="cls-1" d="M45.66,155.03l1.55,2.83c.03,.06,.09,.12,.15,.15l2.83,1.55c.26,.14,.26,.52,0,.67l-2.83,1.55c-.06,.03-.12,.09-.15,.15l-1.55,2.83c-.14,.26-.52,.26-.67,0l-1.55-2.83c-.03-.06-.09-.12-.15-.15l-2.83-1.55c-.26-.14-.26-.52,0-.67l2.83-1.55c.06-.03,.12-.09,.15-.15l1.55-2.83c.14-.26,.52-.26,.67,0Z"/>
      <path class="cls-1" d="M93.52,119.7l1.55,2.83c.03,.06,.09,.12,.15,.15l2.83,1.55c.26,.14,.26,.52,0,.67l-2.83,1.55c-.06,.03-.12,.09-.15,.15l-1.55,2.83c-.14,.26-.52,.26-.67,0l-1.55-2.83c-.03-.06-.09-.12-.15-.15l-2.83-1.55c-.26-.14-.26-.52,0-.67l2.83-1.55c.06-.03,.12-.09,.15-.15l1.55-2.83c.14-.26,.52-.26,.67,0Z"/>
      <path class="cls-1" d="M83.39,65.03l1.55,2.83c.03,.06,.09,.12,.15,.15l2.83,1.55c.26,.14,.26,.52,0,.67l-2.83,1.55c-.06,.03-.12,.09-.15,.15l-1.55,2.83c-.14,.26-.52,.26-.67,0l-1.55-2.83c-.03-.06-.09-.12-.15-.15l-2.83-1.55c-.26-.14-.26-.52,0-.67l2.83-1.55c.06-.03,.12-.09,.15-.15l1.55-2.83c.14-.26,.52-.26,.67,0Z"/>
      <path class="cls-1" d="M275.04,104.86l1.55,2.83c.03,.06,.09,.12,.15,.15l2.83,1.55c.26,.14,.26,.52,0,.67l-2.83,1.55c-.06,.03-.12,.09-.15,.15l-1.55,2.83c-.14,.26-.52,.26-.67,0l-1.55-2.83c-.03-.06-.09-.12-.15-.15l-2.83-1.55c-.26-.14-.26-.52,0-.67l2.83-1.55c.06-.03,.12-.09,.15-.15l1.55-2.83c.14-.26,.52-.26,.67,0Z"/>
    </g>
  </g>
</svg>